<?xml version="1.0" encoding="UTF-8" standalone="no"?>
<!-- Generator: Adobe Illustrator 19.0.0, SVG Export Plug-In . SVG Version: 6.00 Build 0)  -->

<svg
   xmlns:dc="http://purl.org/dc/elements/1.1/"
   xmlns:cc="http://creativecommons.org/ns#"
   xmlns:rdf="http://www.w3.org/1999/02/22-rdf-syntax-ns#"
   xmlns:svg="http://www.w3.org/2000/svg"
   xmlns="http://www.w3.org/2000/svg"
   xmlns:sodipodi="http://sodipodi.sourceforge.net/DTD/sodipodi-0.dtd"
   xmlns:inkscape="http://www.inkscape.org/namespaces/inkscape"
   version="1.1"
   id="Capa_1"
   x="0px"
   y="0px"
   viewBox="0 0 500.00001 500.00001"
   xml:space="preserve"
   inkscape:version="0.91 r"
   sodipodi:docname="android.svg"
   width="500"
   height="500"><metadata
     id="metadata4768"><rdf:RDF><cc:Work
         rdf:about=""><dc:format>image/svg+xml</dc:format><dc:type
           rdf:resource="http://purl.org/dc/dcmitype/StillImage" /><dc:title /></cc:Work></rdf:RDF></metadata><defs
     id="defs4766" /><sodipodi:namedview
     pagecolor="#ffffff"
     bordercolor="#666666"
     borderopacity="1"
     objecttolerance="10"
     gridtolerance="10"
     guidetolerance="10"
     inkscape:pageopacity="0"
     inkscape:pageshadow="2"
     inkscape:window-width="1366"
     inkscape:window-height="715"
     id="namedview4764"
     showgrid="false"
     inkscape:zoom="0.90073149"
     inkscape:cx="68.277834"
     inkscape:cy="252.57249"
     inkscape:window-x="0"
     inkscape:window-y="29"
     inkscape:window-maximized="1"
     inkscape:current-layer="Capa_1" /><g
     id="g4690"
     transform="matrix(0.91208787,0,0,0.91208787,22.204187,19.059209)"
     style="fill:#9fbf3b;fill-opacity:1"><g
       id="g4692"
       style="fill:#9fbf3b;fill-opacity:1"><g
         id="g4694"
         style="fill:#9fbf3b;fill-opacity:1"><path
           style="fill:#9fbf3b;fill-opacity:1"
           d="m 68.541,164.715 -1.294,0 c -16.588,0 -30.113,13.568 -30.113,30.113 l 0,131.107 c 0,16.61 13.525,30.134 30.113,30.134 l 1.316,0 c 16.588,0 30.113,-13.568 30.113,-30.134 l 0,-131.108 C 98.654,178.283 85.108,164.715 68.541,164.715 Z"
           id="path4696"
           inkscape:connector-curvature="0" /><path
           style="fill:#9fbf3b;fill-opacity:1"
           d="m 113.085,376.54 c 0,15.229 12.446,27.632 27.675,27.632 l 29.574,0 0,70.817 c 0,16.631 13.568,30.156 30.113,30.156 l 1.294,0 c 16.61,0 30.156,-13.546 30.156,-30.156 l 0,-70.817 41.33,0 0,70.817 c 0,16.631 13.611,30.156 30.156,30.156 l 1.273,0 c 16.609,0 30.134,-13.546 30.134,-30.156 l 0,-70.817 29.595,0 c 15.207,0 27.654,-12.403 27.654,-27.632 l 0,-207.015 -278.954,0 0,207.015 z"
           id="path4698"
           inkscape:connector-curvature="0" /><path
           style="fill:#9fbf3b;fill-opacity:1"
           d="m 322.041,43.983 23.491,-36.26 c 1.51,-2.287 0.841,-5.414 -1.467,-6.903 -2.286,-1.51 -5.414,-0.884 -6.903,1.467 l -24.353,37.512 c -18.27,-7.485 -38.676,-11.691 -60.226,-11.691 -21.571,0 -41.934,4.206 -60.247,11.691 L 168.026,2.287 c -1.488,-2.351 -4.638,-2.977 -6.946,-1.467 -2.308,1.488 -2.977,4.616 -1.467,6.903 l 23.512,36.26 c -42.387,20.773 -70.968,59.924 -70.968,104.834 0,2.761 0.173,5.479 0.41,8.175 l 280.053,0 c 0.237,-2.696 0.388,-5.414 0.388,-8.175 0.001,-44.91 -28.602,-84.061 -70.967,-104.834 z m -134.386,64.928 c -7.442,0 -13.482,-5.997 -13.482,-13.46 0,-7.463 6.04,-13.439 13.482,-13.439 7.485,0 13.482,5.975 13.482,13.439 0,7.464 -6.04,13.46 -13.482,13.46 z m 129.835,0 c -7.442,0 -13.482,-5.997 -13.482,-13.46 0,-7.463 6.04,-13.439 13.482,-13.439 7.463,0 13.46,5.975 13.46,13.439 0,7.463 -5.997,13.46 -13.46,13.46 z"
           id="path4700"
           inkscape:connector-curvature="0" /><path
           style="fill:#9fbf3b;fill-opacity:1"
           d="m 437.876,164.715 -1.251,0 c -16.588,0 -30.156,13.568 -30.156,30.113 l 0,131.107 c 0,16.61 13.59,30.134 30.156,30.134 l 1.273,0 c 16.609,0 30.113,-13.568 30.113,-30.134 l 0,-131.108 c 0,-16.544 -13.547,-30.112 -30.135,-30.112 z"
           id="path4702"
           inkscape:connector-curvature="0" /></g></g><g
       id="g4704"
       style="fill:#9fbf3b;fill-opacity:1" /><g
       id="g4706"
       style="fill:#9fbf3b;fill-opacity:1" /><g
       id="g4708"
       style="fill:#9fbf3b;fill-opacity:1" /><g
       id="g4710"
       style="fill:#9fbf3b;fill-opacity:1" /><g
       id="g4712"
       style="fill:#9fbf3b;fill-opacity:1" /><g
       id="g4714"
       style="fill:#9fbf3b;fill-opacity:1" /><g
       id="g4716"
       style="fill:#9fbf3b;fill-opacity:1" /><g
       id="g4718"
       style="fill:#9fbf3b;fill-opacity:1" /><g
       id="g4720"
       style="fill:#9fbf3b;fill-opacity:1" /><g
       id="g4722"
       style="fill:#9fbf3b;fill-opacity:1" /><g
       id="g4724"
       style="fill:#9fbf3b;fill-opacity:1" /><g
       id="g4726"
       style="fill:#9fbf3b;fill-opacity:1" /><g
       id="g4728"
       style="fill:#9fbf3b;fill-opacity:1" /><g
       id="g4730"
       style="fill:#9fbf3b;fill-opacity:1" /><g
       id="g4732"
       style="fill:#9fbf3b;fill-opacity:1" /></g><g
     id="g4734"
     transform="translate(0,-5.144989)" /><g
     id="g4736"
     transform="translate(0,-5.144989)" /><g
     id="g4738"
     transform="translate(0,-5.144989)" /><g
     id="g4740"
     transform="translate(0,-5.144989)" /><g
     id="g4742"
     transform="translate(0,-5.144989)" /><g
     id="g4744"
     transform="translate(0,-5.144989)" /><g
     id="g4746"
     transform="translate(0,-5.144989)" /><g
     id="g4748"
     transform="translate(0,-5.144989)" /><g
     id="g4750"
     transform="translate(0,-5.144989)" /><g
     id="g4752"
     transform="translate(0,-5.144989)" /><g
     id="g4754"
     transform="translate(0,-5.144989)" /><g
     id="g4756"
     transform="translate(0,-5.144989)" /><g
     id="g4758"
     transform="translate(0,-5.144989)" /><g
     id="g4760"
     transform="translate(0,-5.144989)" /><g
     id="g4762"
     transform="translate(0,-5.144989)" /></svg>