<?xml version="1.0" encoding="UTF-8" standalone="no"?>
<svg
   xmlns:osb="http://www.openswatchbook.org/uri/2009/osb"
   xmlns:dc="http://purl.org/dc/elements/1.1/"
   xmlns:cc="http://creativecommons.org/ns#"
   xmlns:rdf="http://www.w3.org/1999/02/22-rdf-syntax-ns#"
   xmlns:svg="http://www.w3.org/2000/svg"
   xmlns="http://www.w3.org/2000/svg"
   xmlns:xlink="http://www.w3.org/1999/xlink"
   xmlns:sodipodi="http://sodipodi.sourceforge.net/DTD/sodipodi-0.dtd"
   xmlns:inkscape="http://www.inkscape.org/namespaces/inkscape"
   enable-background="new 0 0 48 48"
   height="1000"
   id="Layer_1"
   version="1.1"
   viewBox="0 0 1000 1000"
   width="1000"
   xml:space="preserve"
   inkscape:version="0.91 r"
   sodipodi:docname="BDT 1.1.svg"
   inkscape:export-filename="/home/shahid/Pictures/BDT 1.1.png"
   inkscape:export-xdpi="91.379494"
   inkscape:export-ydpi="91.379494"><metadata
     id="metadata4998"><rdf:RDF><cc:Work
         rdf:about=""><dc:format>image/svg+xml</dc:format><dc:type
           rdf:resource="http://purl.org/dc/dcmitype/StillImage" /><dc:title></dc:title></cc:Work></rdf:RDF></metadata><defs
     id="defs4996"><linearGradient
       id="linearGradient6376"
       osb:paint="solid"><stop
         style="stop-color:#000000;stop-opacity:1;"
         offset="0"
         id="stop6378" /></linearGradient><linearGradient
       id="linearGradient5987"
       osb:paint="solid"><stop
         style="stop-color:#000000;stop-opacity:1;"
         offset="0"
         id="stop5989" /></linearGradient><pattern
       inkscape:collect="always"
       xlink:href="#Strips1_1"
       id="pattern6004"
       patternTransform="matrix(9.9286487,0,0,9.9286492,8.9772023,6.0270231)" /><pattern
       inkscape:isstock="true"
       inkscape:stockid="Stripes 1:1"
       id="Strips1_1"
       patternTransform="translate(0,0) scale(10,10)"
       height="1"
       width="2"
       patternUnits="userSpaceOnUse"
       inkscape:collect="always"><rect
         id="rect5281"
         height="2"
         width="1"
         y="-0.5"
         x="0"
         style="fill:black;stroke:none" /></pattern><linearGradient
       id="linearGradient5996"
       osb:paint="solid"><stop
         style="stop-color:#000000;stop-opacity:1;"
         offset="0"
         id="stop5998" /></linearGradient><clipPath
       id="SVGID_2_" /><clipPath
       id="SVGID_4_" /><filter
       style="color-interpolation-filters:sRGB;"
       inkscape:label="Drop Shadow"
       id="filter8175"><feFlood
         flood-opacity="0.498039"
         flood-color="rgb(0,0,0)"
         result="flood"
         id="feFlood8177" /><feComposite
         in="flood"
         in2="SourceGraphic"
         operator="in"
         result="composite1"
         id="feComposite8179" /><feGaussianBlur
         in="composite1"
         stdDeviation="7"
         result="blur"
         id="feGaussianBlur8181" /><feOffset
         dx="4.7"
         dy="8.7"
         result="offset"
         id="feOffset8183" /><feComposite
         in="SourceGraphic"
         in2="offset"
         operator="over"
         result="composite2"
         id="feComposite8185" /></filter><filter
       style="color-interpolation-filters:sRGB;"
       inkscape:label="Cross-smooth"
       id="filter8456"><feGaussianBlur
         in="SourceGraphic"
         stdDeviation="10"
         result="blur1"
         id="feGaussianBlur8458" /><feComposite
         in="blur1"
         in2="blur1"
         operator="in"
         result="composite1"
         id="feComposite8460" /><feComposite
         in="composite1"
         in2="composite1"
         k2="1"
         operator="arithmetic"
         result="composite2"
         id="feComposite8462" /><feColorMatrix
         in="composite2"
         values="1 0 0 0 0 0 1 0 0 0 0 0 1 0 0 0 0 0 10 0 "
         result="colormatrix1"
         id="feColorMatrix8464" /><feGaussianBlur
         stdDeviation="1"
         result="blur2"
         id="feGaussianBlur8466" /><feColorMatrix
         in="blur2"
         values="1 0 0 0 0 0 1 0 0 0 0 0 1 0 0 0 0 0 5 -1 "
         result="colormatrix2"
         id="feColorMatrix8468" /><feBlend
         in="SourceGraphic"
         in2="colormatrix2"
         stdDeviation="17"
         mode="normal"
         result="blend"
         id="feBlend8470" /><feComposite
         in="blend"
         in2="colormatrix2"
         operator="in"
         result="composite3"
         id="feComposite8472" /></filter><clipPath
       clipPathUnits="userSpaceOnUse"
       id="clipPath186"><path
         d="M 0,800 800,800 800,0 0,0 0,800 Z"
         id="path188"
         inkscape:connector-curvature="0" /></clipPath><linearGradient
       inkscape:collect="always"
       xlink:href="#linearGradient5996"
       id="linearGradient6198"
       gradientUnits="userSpaceOnUse"
       gradientTransform="matrix(0.99286487,0,0,0.99286492,8.9772023,6.0270231)"
       x1="-0.22665745"
       y1="975.55894"
       x2="973.59829"
       y2="975.55894" /><filter
       style="color-interpolation-filters:sRGB;"
       inkscape:label="Drop Shadow"
       id="filter6694"><feFlood
         flood-opacity="0.498039"
         flood-color="rgb(0,0,0)"
         result="flood"
         id="feFlood6696" /><feComposite
         in="flood"
         in2="SourceGraphic"
         operator="in"
         result="composite1"
         id="feComposite6698" /><feGaussianBlur
         in="composite1"
         stdDeviation="2.10526"
         result="blur"
         id="feGaussianBlur6700" /><feOffset
         dx="2.6"
         dy="1.6"
         result="offset"
         id="feOffset6702" /><feComposite
         in="SourceGraphic"
         in2="offset"
         operator="over"
         result="composite2"
         id="feComposite6704" /></filter><linearGradient
       inkscape:collect="always"
       xlink:href="#linearGradient6376"
       id="linearGradient3636"
       gradientUnits="userSpaceOnUse"
       x1="5.6294316"
       y1="936.27392"
       x2="1022.4743"
       y2="936.27392" /></defs><sodipodi:namedview
     pagecolor="#ffffff"
     bordercolor="#666666"
     borderopacity="1"
     objecttolerance="10"
     gridtolerance="10"
     guidetolerance="10"
     inkscape:pageopacity="0"
     inkscape:pageshadow="2"
     inkscape:window-width="1366"
     inkscape:window-height="714"
     id="namedview4994"
     showgrid="false"
     inkscape:zoom="0.32"
     inkscape:cx="652.57376"
     inkscape:cy="518.05232"
     inkscape:window-x="0"
     inkscape:window-y="27"
     inkscape:window-maximized="1"
     inkscape:current-layer="layer6"
     showguides="false"
     inkscape:guide-bbox="true"
     showborder="true"><inkscape:grid
       type="xygrid"
       id="grid3638" /></sodipodi:namedview><g
     inkscape:groupmode="layer"
     id="layer1"
     inkscape:label="Heading"><text
       xml:space="preserve"
       style="font-style:normal;font-weight:normal;font-size:40px;line-height:125%;font-family:sans-serif;letter-spacing:0px;word-spacing:0px;fill:#000000;fill-opacity:1;stroke:none;stroke-width:1px;stroke-linecap:butt;stroke-linejoin:miter;stroke-opacity:1"
       x="-110.1229"
       y="589.54193"
       id="text6241"
       sodipodi:linespacing="125%"><tspan
         sodipodi:role="line"
         id="tspan6243"
         x="-110.1229"
         y="589.54193" /></text>
<text
       xml:space="preserve"
       style="font-style:normal;font-weight:normal;font-size:240.77381897px;line-height:125%;font-family:sans-serif;letter-spacing:0px;word-spacing:0px;fill:#004b09;fill-opacity:1;stroke:none;stroke-width:1px;stroke-linecap:butt;stroke-linejoin:miter;stroke-opacity:1;filter:url(#filter8175)"
       x="9.9680367"
       y="788.23468"
       id="text6296"
       sodipodi:linespacing="125%"
       transform="matrix(0.66627913,0,0,1.2770184,-4.2125991,-131.15014)"
       inkscape:export-xdpi="91.379494"
       inkscape:export-ydpi="91.379494"><tspan
         sodipodi:role="line"
         id="tspan6298"
         x="9.9680367"
         y="788.23468"
         style="font-style:normal;font-variant:normal;font-weight:normal;font-stretch:normal;font-family:'Saucer BB';-inkscape-font-specification:'Saucer BB';fill:#1a1a1a;fill-opacity:1"><tspan
   style="fill:#006500;fill-opacity:1"
   id="tspan6245">BD</tspan><tspan
   style="fill:#ff0000;fill-opacity:1"
   id="tspan8474">T</tspan>ECHIES</tspan></text>
<text
       xml:space="preserve"
       style="font-style:normal;font-weight:normal;font-size:40px;line-height:125%;font-family:sans-serif;letter-spacing:0px;word-spacing:0px;fill:#000000;fill-opacity:1;stroke:none;stroke-width:1px;stroke-linecap:butt;stroke-linejoin:miter;stroke-opacity:1"
       x="1316.9865"
       y="966.85437"
       id="text6290"
       sodipodi:linespacing="125%"><tspan
         sodipodi:role="line"
         id="tspan6292"
         x="1316.9865"
         y="966.85437" /></text>
</g><g
     inkscape:groupmode="layer"
     id="layer5"
     inkscape:label="Mission"><text
       xml:space="preserve"
       style="font-style:normal;font-variant:normal;font-weight:100;font-stretch:normal;font-size:38.90084076px;line-height:125%;font-family:Trench;-inkscape-font-specification:'Trench Thin';letter-spacing:0px;word-spacing:0px;fill:url(#linearGradient3636);fill-opacity:1;stroke:#000000;stroke-width:5;stroke-linecap:butt;stroke-linejoin:miter;stroke-miterlimit:4;stroke-dasharray:none;stroke-dashoffset:0;stroke-opacity:0.19642855;filter:url(#filter6694)"
       x="517.56329"
       y="957.98059"
       id="text4548"
       sodipodi:linespacing="125%"
       transform="matrix(0.97600562,0,0,1.321311,-1.0718808,-282.30839)"
       inkscape:export-xdpi="91.379494"
       inkscape:export-ydpi="91.379494"><tspan
         sodipodi:role="line"
         id="tspan4550"
         x="517.56329"
         y="957.98059"
         style="font-style:normal;font-variant:normal;font-weight:100;font-stretch:normal;font-size:77.80168152px;font-family:Trench;-inkscape-font-specification:'Trench Thin';text-align:center;text-anchor:middle;fill:url(#linearGradient3636);fill-opacity:1;stroke:none;stroke-width:5;stroke-linejoin:miter;stroke-miterlimit:4;stroke-dasharray:none;stroke-dashoffset:0;stroke-opacity:0.19642855"><tspan
   style="fill:url(#linearGradient3636);fill-opacity:1;stroke:none;stroke-width:5;stroke-miterlimit:4;stroke-dasharray:none;stroke-dashoffset:0;stroke-opacity:1"
   id="tspan6361">We convert</tspan><tspan
   style="font-style:normal;font-variant:normal;font-weight:100;font-stretch:normal;font-family:Trench;-inkscape-font-specification:'Trench Thin';fill:url(#linearGradient3636);fill-opacity:1;stroke:#000000;stroke-width:5;stroke-miterlimit:4;stroke-dasharray:none;stroke-dashoffset:0;stroke-opacity:1"
   id="tspan6167"> IDEAS</tspan> into <tspan
   style="font-style:normal;font-variant:normal;font-weight:100;font-stretch:normal;font-family:Trench;-inkscape-font-specification:'Trench Thin';fill:url(#linearGradient3636);fill-opacity:1;stroke:#000000;stroke-width:5;stroke-linejoin:miter;stroke-miterlimit:4;stroke-dasharray:none;stroke-dashoffset:0;stroke-opacity:1"
   id="tspan6239">REALITY</tspan></tspan></text>
</g><g
     inkscape:groupmode="layer"
     id="layer2"
     inkscape:label="Monitor"><rect
       style="opacity:0.13699999;fill:#c7e500;fill-opacity:1;stroke:#3dff03;stroke-width:4;stroke-linecap:butt;stroke-linejoin:round;stroke-miterlimit:4;stroke-dasharray:none;stroke-opacity:1"
       id="rect24724"
       width="916.22076"
       height="572.38513"
       x="42.473808"
       y="41.305431"
       inkscape:export-xdpi="91.379494"
       inkscape:export-ydpi="91.379494" /></g><g
     inkscape:groupmode="layer"
     id="layer3"
     inkscape:label="Light"><g
       id="g3577"
       transform="matrix(8.9151304,0,0,8.9151304,26.262514,83.621665)"
       style="fill:#1a1a1a"
       inkscape:export-xdpi="91.379494"
       inkscape:export-ydpi="91.379494"><g
         id="g3579"
         style="fill:#1a1a1a"><path
           id="path3581"
           d="m 43.296,38.625 c -0.568,-0.452 -1.137,-0.903 -1.705,-1.355 -1.979,-1.57 -3.958,-3.142 -5.938,-4.713 -0.41,-0.326 -1.018,-0.436 -1.414,0 -2.509,2.756 -5.017,5.512 -7.522,8.268 -2.494,-2.75 -4.988,-5.5 -7.482,-8.25 -0.388,-0.428 -1.015,-0.338 -1.414,0 -2.366,2 -4.732,4.002 -7.098,6.005 -0.338,0.284 -0.85,0.594 -0.975,1.048 -0.094,0.34 -0.036,0.762 -0.036,1.105 0,1.737 0,3.476 0,5.213 0,2.227 0,4.451 0,6.678 0,0.545 0.455,1 1,1 5.646,0 11.291,0 16.937,0 5.104,0 10.209,0 15.313,0 0.275,0 0.48,-0.104 0.64,-0.247 0.021,-0.017 0.041,-0.028 0.062,-0.046 0.021,-0.024 0.039,-0.053 0.06,-0.079 0.138,-0.157 0.237,-0.356 0.237,-0.627 0,-3.06 0,-6.116 0,-9.175 0,-1.256 0,-2.51 0,-3.767 -10e-4,-0.546 -0.299,-0.768 -0.665,-1.058 z M 28.77,41.533 c 2.056,-2.256 4.108,-4.514 6.164,-6.771 -0.106,-0.304 -0.217,-0.607 -0.349,-0.896 0.133,0.289 0.242,0.593 0.35,0.896 0.436,1.229 0.705,2.554 0.982,3.796 0.184,0.813 0.358,1.637 0.451,2.465 0.006,0.051 0.008,0.103 0.013,0.152 -0.032,-0.014 -0.063,-0.027 -0.097,-0.041 -1.722,-0.725 -3.931,-0.328 -5.694,0.002 -0.606,0.112 -1.216,0.247 -1.82,0.397 -0.141,0.035 -0.279,0.083 -0.42,0.123 0.141,-0.04 0.278,-0.088 0.42,-0.123 z m -4.084,0.024 c 0.43,0.114 0.852,0.251 1.274,0.387 0.104,0.033 0.209,0.062 0.312,0.097 0.083,-0.086 0.165,-0.173 0.247,-0.259 -0.083,0.088 -0.165,0.174 -0.247,0.26 -0.103,-0.034 -0.208,-0.062 -0.312,-0.096 -0.423,-0.137 -0.845,-0.273 -1.274,-0.389 -0.571,-0.148 -1.147,-0.283 -1.724,-0.402 -1.795,-0.366 -3.957,-0.719 -5.706,0.014 -0.004,0.002 -0.007,0.004 -0.011,0.006 0.004,-0.051 0.006,-0.102 0.011,-0.15 0.084,-0.828 0.271,-1.651 0.451,-2.465 0.265,-1.197 0.525,-2.476 0.933,-3.666 l 0,-10e-4 c 2.017,2.22 4.031,4.442 6.046,6.664 z m 17.272,10.068 c -4.895,0 -9.79,0 -14.686,0 l 0,-10e-4 c 0.373,-1.612 1.119,-5.042 1.523,-6.906 0.019,-0.085 -0.059,-0.226 -0.154,-0.19 -0.674,0.252 -2.023,0.734 -2.023,0.734 0,0 -1.499,-0.59 -1.923,-0.75 -0.035,-0.033 -0.083,-0.038 -0.129,-0.015 -0.014,0.006 -0.053,0.046 -0.06,0.061 -0.004,0.013 -0.005,0.021 -0.007,0.034 -0.003,0.016 -0.012,0.027 -0.009,0.045 0.37,1.869 1.056,5.355 1.398,6.986 0.086,0.409 0.15,0.701 0.183,0.821 -0.032,-0.12 -0.097,-0.411 -0.183,-0.82 -4.726,0 -9.452,0 -14.177,0 0,-3.757 0,-7.515 0,-11.271 1.9,-1.607 3.799,-3.216 5.699,-4.824 0.21,-0.744 0.451,-1.479 0.766,-2.168 0.233,-0.513 0.923,-0.188 0.913,0.292 0.008,-0.479 -0.68,-0.803 -0.913,-0.29 -0.315,0.689 -0.556,1.425 -0.766,2.168 -0.271,0.961 -0.486,1.94 -0.697,2.893 -0.19,0.857 -0.36,1.723 -0.458,2.598 -0.055,0.495 -0.128,1.186 0.443,1.397 0.3,0.112 0.6,-0.169 0.843,-0.292 0.414,-0.209 0.912,-0.284 1.368,-0.327 1.075,-0.101 2.172,0.03 3.23,0.213 1.303,0.226 2.602,0.563 3.857,0.99 0.095,0.032 0.195,0.056 0.29,0.089 0.116,0.04 0.244,0.006 0.356,-0.054 0.045,-0.023 0.096,-0.04 0.129,-0.075 0.154,-0.161 0.308,-0.323 0.462,-0.484 0.159,-0.166 0.168,-0.361 0.099,-0.523 -0.126,-0.297 -0.517,-0.483 -0.804,-0.184 0.287,-0.302 0.678,-0.113 0.804,0.183 0,0 0,0 10e-4,0 0.069,0.164 0.06,0.358 -0.099,0.524 -0.154,0.161 -0.308,0.323 -0.462,0.484 -0.033,0.035 -0.084,0.052 -0.129,0.075 0.126,0.058 0.256,0.094 0.381,0.05 0.154,-0.055 0.311,-0.102 0.466,-0.148 0.842,-0.261 1.695,-0.481 2.555,-0.674 1.156,-0.257 2.328,-0.445 3.513,-0.488 0.97,-0.037 2.058,0.008 2.892,0.563 0.635,0.423 0.957,-0.372 0.95,-0.868 -0.01,-0.848 -0.211,-1.713 -0.381,-2.54 -0.229,-1.109 -0.474,-2.263 -0.795,-3.383 1.912,1.518 3.823,3.035 5.733,4.554 10e-4,3.84 10e-4,7.681 10e-4,11.521 z"
           style="fill:#1a1a1a"
           inkscape:connector-curvature="0" /></g><path
         id="path3583"
         d="m 20.417,22.254 c 0.357,0.329 0.892,0.59 1.202,0.922 0.013,0.024 0.082,0.118 0.087,0.126 0.05,0.084 0.066,0.135 0.097,0.229 0.122,0.372 0.048,0.754 -0.054,1.12 -0.259,0.934 1.188,1.33 1.446,0.399 C 23.467,24.069 23.44,22.818 22.64,22.067 22.379,21.822 22.033,21.655 21.753,21.43 21.47,21.202 21.21,20.946 20.96,20.683 20.415,20.11 19.996,19.436 19.654,18.726 c -1.273,-2.639 -0.683,-5.907 1.232,-8.065 1.88,-2.118 4.841,-2.931 7.556,-2.204 2.687,0.719 4.689,2.981 5.289,5.66 0.493,2.202 -0.153,4.588 -1.589,6.307 -0.34,0.407 -0.73,0.768 -1.143,1.102 -0.364,0.296 -0.893,0.471 -1.207,0.812 -0.683,0.734 -0.855,1.774 -0.56,2.714 0.289,0.915 1.737,0.523 1.444,-0.402 -0.148,-0.475 -0.051,-1.001 0.172,-1.255 0.09,-0.104 0.471,-0.268 0.631,-0.378 0.346,-0.234 0.67,-0.5 0.98,-0.776 1.121,-0.992 1.926,-2.298 2.434,-3.695 1.002,-2.756 0.438,-5.972 -1.314,-8.293 -1.729,-2.292 -4.457,-3.599 -7.321,-3.569 -2.871,0.03 -5.501,1.534 -7.165,3.833 -1.672,2.31 -2.025,5.437 -1.093,8.105 0.486,1.391 1.337,2.637 2.417,3.632 z"
         style="fill:#bdff00;fill-opacity:1"
         inkscape:connector-curvature="0" /><path
         id="path3585"
         d="m 29.578,26.237 c -2.369,0 -4.736,0 -7.105,0 -0.645,0 -0.645,1 0,1 2.369,0 4.738,0 7.105,0 0.645,0 0.645,-1 0,-1 z"
         style="fill:#259000;fill-opacity:1"
         inkscape:connector-curvature="0" /><path
         id="path3587"
         d="m 29.578,27.747 c -2.369,0 -4.736,0 -7.105,0 -0.645,0 -0.645,1 0,1 2.369,0 4.738,0 7.105,0 0.645,0 0.645,-1 0,-1 z"
         style="fill:#259000;fill-opacity:1"
         inkscape:connector-curvature="0" /><path
         id="path3589"
         d="m 29.578,29.747 c -2.369,0 -4.736,0 -7.105,0 -0.645,0 -0.645,1 0,1 2.369,0 4.738,0 7.105,0 0.645,0 0.645,-1 0,-1 z"
         style="fill:#259000;fill-opacity:1"
         inkscape:connector-curvature="0" /><path
         id="path3591"
         d="m 27.678,23.78 c 0.481,-2.93 0.962,-5.86 1.442,-8.79 0.028,-0.176 -0.108,-0.371 -0.309,-0.308 -0.396,0.127 -0.715,0.183 -1.102,-0.003 -0.255,-0.124 -0.518,-0.114 -0.734,0.063 -0.253,0.205 -0.521,0.33 -0.837,0.145 -0.163,-0.095 -0.307,-0.172 -0.488,-0.223 -0.122,-0.035 -0.261,0.016 -0.373,0.057 -0.389,0.141 -0.654,0.099 -1.035,-0.038 -0.141,-0.051 -0.336,0.085 -0.316,0.241 0.369,2.93 0.739,5.86 1.108,8.79 0.04,0.315 0.54,0.319 0.5,0 -0.354,-2.81 -0.709,-5.619 -1.062,-8.429 0.288,0.084 0.538,0.104 0.864,-0.044 0.408,-0.185 0.558,0.186 0.894,0.251 0.204,0.039 0.359,0.029 0.556,-0.038 0.17,-0.058 0.32,-0.177 0.458,-0.289 0.219,-0.178 0.399,0.088 0.62,0.153 0.229,0.067 0.469,0.026 0.705,-0.039 -0.459,2.79 -0.917,5.578 -1.375,8.368 -0.05,0.315 0.432,0.45 0.484,0.133 z"
         style="fill:#259000;fill-opacity:1"
         inkscape:connector-curvature="0" /><path
         id="path3593"
         d="m 45.933,15.506 c -2.417,0 -4.833,0 -7.25,0 -0.645,0 -0.645,1 0,1 2.417,0 4.833,0 7.25,0 0.645,0 0.645,-1 0,-1 z"
         style="fill:#bdff00;fill-opacity:1"
         inkscape:connector-curvature="0" /><path
         id="path3595"
         d="m 37.435,10.688 c 1.25,-0.667 2.5,-1.333 3.75,-2 0.568,-0.304 0.064,-1.167 -0.505,-0.863 -1.25,0.667 -2.5,1.333 -3.75,2 -0.569,0.303 -0.063,1.166 0.505,0.863 z"
         style="fill:#bdff00;fill-opacity:1"
         inkscape:connector-curvature="0" /><path
         id="path3597"
         d="m 27.55,4.278 c 0,-1.265 0,-2.529 0,-3.794 0,-0.645 -1,-0.645 -1,0 0,1.265 0,2.529 0,3.794 0,0.645 1,0.645 1,0 z"
         style="fill:#bdff00;fill-opacity:1"
         inkscape:connector-curvature="0" /><path
         id="path3599"
         d="m 16.358,10.185 c 0.5,0.395 1.213,-0.307 0.707,-0.707 -1.436,-1.134 -2.872,-2.268 -4.308,-3.401 -0.5,-0.395 -1.213,0.308 -0.707,0.707 1.436,1.134 2.872,2.268 4.308,3.401 z"
         style="fill:#bdff00;fill-opacity:1"
         inkscape:connector-curvature="0" /><path
         id="path3601"
         d="m 36.931,22.862 c 1.25,0.667 2.5,1.333 3.75,2 0.568,0.303 1.074,-0.56 0.505,-0.863 -1.25,-0.667 -2.5,-1.333 -3.75,-2 -0.569,-0.304 -1.075,0.559 -0.505,0.863 z"
         style="fill:#bdff00;fill-opacity:1"
         inkscape:connector-curvature="0" /><path
         id="path3603"
         d="m 15.358,21.501 c -1.436,1.134 -2.872,2.268 -4.308,3.401 -0.506,0.399 0.207,1.102 0.707,0.707 1.436,-1.134 2.872,-2.268 4.308,-3.401 0.506,-0.399 -0.207,-1.102 -0.707,-0.707 z"
         style="fill:#bdff00;fill-opacity:1"
         inkscape:connector-curvature="0" /><path
         id="path3605"
         d="m 15.433,15.756 c -2.583,-0.333 -5.167,-0.667 -7.75,-1 -0.638,-0.082 -0.63,0.919 0,1 2.583,0.333 5.167,0.667 7.75,1 0.638,0.082 0.63,-0.919 0,-1 z"
         style="fill:#bdff00;fill-opacity:1"
         inkscape:connector-curvature="0" /></g></g><g
     inkscape:groupmode="layer"
     id="layer4"
     inkscape:label="Coading"
     style="display:inline"><g
       transform="matrix(10.973055,0,0,10.973055,487.8393,76.655923)"
       id="g24475"
       inkscape:export-xdpi="91.379494"
       inkscape:export-ydpi="91.379494"><g
         id="_x31_86_50_"><g
           id="g24478"><path
             inkscape:connector-curvature="0"
             d="m 13.16,18.613 c 0,0 -0.063,-0.694 -0.094,-1.042 0.164,-0.094 0.321,-0.196 0.468,-0.31 0.261,0.15 0.781,0.451 0.781,0.451 l 0.887,-0.233 1.006,-1.739 -0.233,-0.887 c 0,0 -0.67,-0.389 -1.005,-0.581 -0.009,-0.193 -0.03,-0.385 -0.069,-0.569 0.266,-0.229 0.796,-0.682 0.796,-0.682 l 0,-0.917 -1.309,-1.526 -0.917,0 c 0,0 -0.435,0.372 -0.652,0.559 C 12.583,11.023 12.334,10.929 12.074,10.858 12.053,10.6 12.011,10.083 12.011,10.083 L 11.363,9.435 9.36,9.597 8.712,10.245 c 0,0 0.055,0.681 0.082,1.021 C 8.598,11.377 8.413,11.503 8.24,11.644 7.959,11.514 7.394,11.257 7.394,11.257 l -0.887,0.232 -0.839,1.828 -0.029,0.125 0.263,0.762 c 0,0 0.654,0.299 0.982,0.449 0.014,0.216 0.047,0.425 0.101,0.63 -0.25,0.21 -0.749,0.635 -0.749,0.635 l 0,0.916 1.299,1.534 c 0,0 0.755,0.09 0.796,0.067 0.041,-0.022 0.122,-0.067 0.122,-0.067 0,0 0.475,-0.402 0.712,-0.604 0.2,0.09 0.409,0.165 0.626,0.224 0.024,0.27 0.074,0.809 0.074,0.809 l 0.648,0.648 2,-0.183 0.647,-0.649 z m -2.345,-2.152 c -1.116,0 -2.021,-0.905 -2.021,-2.021 0,-1.117 0.905,-2.022 2.021,-2.022 1.118,0 2.023,0.905 2.023,2.022 0,1.115 -0.905,2.021 -2.023,2.021 z"
             id="path24480"
             style="fill:#2eaadf;fill-opacity:1" /><path
             inkscape:connector-curvature="0"
             d="m 18.718,25.188 c 0,0 -0.048,-0.525 -0.071,-0.789 0.124,-0.07 0.243,-0.147 0.354,-0.233 0.197,0.112 0.59,0.341 0.59,0.341 l 0.671,-0.176 0.761,-1.315 -0.176,-0.67 c 0,0 -0.506,-0.294 -0.76,-0.439 -0.006,-0.146 -0.022,-0.291 -0.052,-0.43 0.201,-0.172 0.602,-0.516 0.602,-0.516 l 0,-0.693 -0.99,-1.154 -0.694,0 c 0,0 -0.329,0.281 -0.493,0.422 C 18.282,19.45 18.093,19.379 17.897,19.325 17.881,19.13 17.85,18.739 17.85,18.739 l -0.49,-0.49 -1.514,0.123 -0.49,0.49 c 0,0 0.042,0.515 0.062,0.771 -0.148,0.084 -0.289,0.18 -0.419,0.286 -0.212,-0.098 -0.639,-0.292 -0.639,-0.292 l -0.671,0.176 -0.634,1.382 -0.022,0.094 0.199,0.576 c 0,0 0.495,0.226 0.742,0.339 0.011,0.164 0.036,0.32 0.077,0.477 -0.189,0.159 -0.566,0.479 -0.566,0.479 l 0,0.693 0.982,1.16 c 0,0 0.571,0.068 0.602,0.051 0.031,-0.017 0.092,-0.051 0.092,-0.051 0,0 0.359,-0.305 0.538,-0.456 0.151,0.067 0.309,0.125 0.474,0.169 0.019,0.204 0.056,0.611 0.056,0.611 l 0.49,0.49 1.512,-0.139 0.487,-0.49 z m -1.773,-1.627 c -0.844,0 -1.528,-0.686 -1.528,-1.529 0,-0.844 0.684,-1.528 1.528,-1.528 0.845,0 1.53,0.685 1.53,1.528 0,0.843 -0.685,1.529 -1.53,1.529 z"
             id="path24482"
             style="fill:#2eaadf;fill-opacity:1" /><path
             inkscape:connector-curvature="0"
             d="m 32.653,6.125 c -6.418,0 -12.835,0 -19.253,0 -1.612,0 -1.612,2.5 0,2.5 6.418,0 12.835,0 19.253,0 1.612,0 1.612,-2.5 0,-2.5 z"
             id="path24484"
             style="fill:#ff2433;fill-opacity:0.61333337" /><path
             inkscape:connector-curvature="0"
             d="m 32.653,12.042 c -6.418,0 -2.836,0 -9.254,0 -1.611,0 -1.611,2.5 0,2.5 6.418,0 2.836,0 9.254,0 1.612,0 1.612,-2.5 0,-2.5 z"
             id="path24486"
             style="fill:#ff2433;fill-opacity:0.61333337" /><polygon
             points="36.253,3 36.253,18.867 39.253,18.867 39.253,0 4.198,0 4.198,9.784 7.198,9.784 7.198,3 "
             id="polygon24488"
             style="fill:#ff2433;fill-opacity:0.61333337" /><path
             inkscape:connector-curvature="0"
             d="m 33.97,35.793 c -0.004,-0.319 -0.029,-0.637 -0.084,-0.943 0.449,-0.361 1.35,-1.082 1.35,-1.082 l 0.049,-1.511 -2.076,-2.586 -1.514,-0.049 c 0,0 -0.736,0.592 -1.104,0.887 -0.383,-0.2 -0.789,-0.369 -1.213,-0.5 -0.021,-0.427 -0.064,-1.282 -0.064,-1.282 l -1.035,-1.102 -3.309,0.161 -1.104,1.034 c 0,0 0.055,1.125 0.08,1.687 -0.328,0.173 -0.641,0.372 -0.933,0.593 -0.457,-0.228 -1.374,-0.683 -1.374,-0.683 l -1.475,0.337 -1.479,2.97 -0.055,0.203 0.392,1.271 c 0,0 1.063,0.526 1.595,0.791 0.012,0.357 0.056,0.705 0.133,1.043 -0.423,0.334 -1.269,1.009 -1.269,1.009 l -0.049,1.509 2.06,2.598 c 0,0 1.24,0.188 1.308,0.153 0.068,-0.035 0.204,-0.104 0.204,-0.104 0,0 0.805,-0.638 1.207,-0.957 0.324,0.16 0.664,0.295 1.02,0.402 0.025,0.446 0.078,1.338 0.078,1.338 l 1.035,1.102 3.305,-0.194 1.104,-1.032 c 0,0 -0.066,-1.149 -0.1,-1.724 0.273,-0.146 0.539,-0.308 0.789,-0.487 0.42,0.262 1.264,0.786 1.264,0.786 l 1.475,-0.338 1.752,-2.813 -0.338,-1.476 c 0.002,-0.001 -1.082,-0.675 -1.625,-1.011 z m -6.965,3.386 C 25.165,39.12 23.72,37.58 23.78,35.741 c 0.059,-1.844 1.6,-3.286 3.439,-3.228 1.842,0.06 3.285,1.599 3.227,3.442 -0.06,1.841 -1.599,3.283 -3.441,3.224 z"
             id="path24490"
             style="fill:#2eaadf;fill-opacity:1" /><path
             inkscape:connector-curvature="0"
             d="m 40.116,28.74 c 0,0 -1.166,-0.725 -1.75,-1.086 -0.004,-0.344 -0.029,-0.684 -0.09,-1.013 0.484,-0.389 1.453,-1.165 1.453,-1.165 l 0.053,-1.625 -2.234,-2.782 -1.627,-0.053 c 0,0 -0.793,0.635 -1.188,0.955 -0.412,-0.217 -0.848,-0.399 -1.307,-0.539 -0.021,-0.46 -0.066,-1.379 -0.066,-1.379 l -1.111,-1.187 -3.562,0.174 -1.186,1.112 c 0,0 0.059,1.209 0.086,1.813 -0.354,0.187 -0.689,0.399 -1.002,0.64 -0.492,-0.246 -1.48,-0.734 -1.48,-0.734 l -1.584,0.363 -1.593,3.192 -0.06,0.22 0.423,1.366 c 0,0 0.746,0.37 1.335,0.662 l 0.66,-0.619 0.27,-0.251 0.367,-0.018 2.656,-0.129 c 0.465,-1.506 1.877,-2.584 3.527,-2.53 1.982,0.063 3.535,1.719 3.471,3.7 -0.016,0.533 -0.156,1.031 -0.379,1.479 l 1.865,2.324 0.232,0.289 -0.012,0.37 -0.031,0.958 c 0.387,0.24 0.758,0.471 0.758,0.471 l 1.586,-0.363 1.883,-3.025 -0.363,-1.59 z"
             id="path24492"
             style="fill:#2eaadf;fill-opacity:1" /><path
             inkscape:connector-curvature="0"
             d="m 5.927,25.189 c 0.294,0 0.537,-0.08 0.73,-0.238 C 6.85,24.794 6.996,24.57 7.093,24.281 7.19,23.99 7.239,23.609 7.239,23.136 7.239,22.738 7.208,22.42 7.149,22.187 7.088,21.95 7.004,21.751 6.899,21.586 6.791,21.423 6.657,21.297 6.495,21.211 6.332,21.125 6.143,21.081 5.927,21.081 c -0.293,0 -0.536,0.078 -0.729,0.236 -0.193,0.157 -0.339,0.38 -0.438,0.67 -0.096,0.292 -0.146,0.673 -0.146,1.149 0,0.756 0.132,1.301 0.396,1.637 0.223,0.277 0.528,0.416 0.917,0.416 z M 5.378,21.778 c 0.135,-0.192 0.317,-0.289 0.544,-0.289 0.23,0 0.422,0.109 0.578,0.326 0.154,0.218 0.232,0.658 0.232,1.32 0,0.659 -0.078,1.098 -0.232,1.316 -0.155,0.221 -0.346,0.33 -0.572,0.33 -0.227,0 -0.418,-0.109 -0.572,-0.328 C 5.201,24.234 5.124,23.795 5.124,23.135 5.122,22.477 5.207,22.023 5.378,21.778 Z"
             id="path24494"
             style="fill:#2eaadf;fill-opacity:1" /><path
             inkscape:connector-curvature="0"
             d="m 8.843,21.619 c -0.207,0.185 -0.449,0.342 -0.725,0.473 l 0,0.477 c 0.154,-0.056 0.328,-0.141 0.521,-0.254 0.193,-0.113 0.348,-0.228 0.467,-0.34 l 0,3.147 0.494,0 0,-4.04 -0.319,0 C 9.196,21.256 9.05,21.434 8.843,21.619 Z"
             id="path24496"
             style="fill:#2eaadf;fill-opacity:1" /><path
             inkscape:connector-curvature="0"
             d="M 6.993,27.587 C 6.886,27.424 6.753,27.298 6.589,27.212 6.426,27.126 6.237,27.082 6.021,27.082 c -0.292,0 -0.536,0.078 -0.729,0.236 -0.193,0.156 -0.337,0.379 -0.436,0.67 -0.097,0.289 -0.147,0.673 -0.147,1.147 0,0.756 0.133,1.302 0.398,1.636 0.221,0.278 0.525,0.418 0.914,0.418 0.294,0 0.538,-0.08 0.732,-0.238 0.191,-0.158 0.337,-0.383 0.435,-0.672 0.097,-0.289 0.146,-0.67 0.146,-1.144 0,-0.397 -0.03,-0.716 -0.09,-0.95 C 7.182,27.949 7.098,27.751 6.993,27.587 Z m -0.4,2.866 c -0.155,0.22 -0.345,0.33 -0.572,0.33 -0.227,0 -0.417,-0.11 -0.572,-0.329 -0.155,-0.218 -0.23,-0.658 -0.23,-1.318 0,-0.659 0.083,-1.112 0.253,-1.358 0.135,-0.191 0.317,-0.289 0.544,-0.289 0.231,0 0.423,0.109 0.578,0.326 0.155,0.219 0.232,0.658 0.232,1.32 -10e-4,0.661 -0.078,1.099 -0.233,1.318 z"
             id="path24498"
             style="fill:#2eaadf;fill-opacity:1" /><path
             inkscape:connector-curvature="0"
             d="m 9.695,31.121 0,-4.04 -0.319,0 C 9.291,27.255 9.144,27.434 8.938,27.619 8.732,27.804 8.49,27.961 8.214,28.092 l 0,0.477 c 0.153,-0.056 0.327,-0.141 0.52,-0.254 0.193,-0.113 0.349,-0.228 0.467,-0.34 l 0,3.147 0.494,-0.001 0,0 z"
             id="path24500"
             style="fill:#2eaadf;fill-opacity:1" /><path
             inkscape:connector-curvature="0"
             d="m 12.403,31.121 0,-4.04 -0.318,0 c -0.085,0.174 -0.232,0.353 -0.438,0.538 -0.206,0.185 -0.448,0.342 -0.724,0.473 l 0,0.477 c 0.152,-0.056 0.327,-0.141 0.52,-0.254 0.193,-0.113 0.35,-0.228 0.467,-0.34 l 0,3.147 0.493,-0.001 0,0 z"
             id="path24502"
             style="fill:#2eaadf;fill-opacity:1" /><path
             inkscape:connector-curvature="0"
             d="m 15.952,27.587 c -0.107,-0.163 -0.24,-0.289 -0.404,-0.375 -0.163,-0.086 -0.352,-0.13 -0.567,-0.13 -0.293,0 -0.537,0.078 -0.73,0.236 -0.193,0.156 -0.337,0.379 -0.436,0.67 -0.097,0.291 -0.146,0.673 -0.146,1.148 0,0.756 0.132,1.301 0.397,1.637 0.221,0.277 0.526,0.416 0.915,0.416 0.293,0 0.537,-0.08 0.73,-0.238 0.193,-0.157 0.337,-0.381 0.435,-0.67 0.097,-0.291 0.147,-0.672 0.147,-1.145 0,-0.398 -0.031,-0.716 -0.092,-0.949 -0.059,-0.238 -0.142,-0.436 -0.249,-0.6 z m -0.4,2.866 c -0.155,0.22 -0.345,0.33 -0.571,0.33 -0.228,0 -0.418,-0.11 -0.574,-0.329 -0.155,-0.218 -0.23,-0.658 -0.23,-1.318 0,-0.659 0.085,-1.112 0.253,-1.358 0.137,-0.191 0.317,-0.289 0.544,-0.289 0.231,0 0.423,0.109 0.578,0.326 0.155,0.219 0.232,0.658 0.232,1.32 10e-4,0.661 -0.076,1.099 -0.232,1.318 z"
             id="path24504"
             style="fill:#2eaadf;fill-opacity:1" /><path
             inkscape:connector-curvature="0"
             d="M 6.993,34.332 C 6.886,34.168 6.753,34.043 6.589,33.956 6.426,33.87 6.237,33.826 6.021,33.826 c -0.292,0 -0.536,0.078 -0.729,0.236 -0.193,0.156 -0.337,0.381 -0.436,0.67 -0.097,0.291 -0.147,0.672 -0.147,1.148 0,0.757 0.133,1.302 0.398,1.636 0.221,0.278 0.525,0.419 0.914,0.419 0.294,0 0.538,-0.08 0.732,-0.238 0.191,-0.158 0.337,-0.383 0.435,-0.672 0.097,-0.289 0.146,-0.672 0.146,-1.145 0,-0.396 -0.03,-0.716 -0.09,-0.95 C 7.182,34.695 7.098,34.496 6.993,34.332 Z m -0.4,2.867 c -0.155,0.219 -0.345,0.328 -0.572,0.328 -0.227,0 -0.417,-0.108 -0.572,-0.328 -0.155,-0.219 -0.23,-0.657 -0.23,-1.318 0,-0.659 0.083,-1.111 0.253,-1.357 0.135,-0.191 0.317,-0.289 0.544,-0.289 0.231,0 0.423,0.109 0.578,0.326 0.155,0.219 0.232,0.658 0.232,1.32 -10e-4,0.659 -0.078,1.098 -0.233,1.318 z"
             id="path24506"
             style="fill:#2eaadf;fill-opacity:1" /><path
             inkscape:connector-curvature="0"
             d="M 10.119,34.332 C 10.011,34.168 9.877,34.043 9.715,33.956 9.552,33.87 9.363,33.826 9.147,33.826 c -0.292,0 -0.536,0.078 -0.729,0.236 -0.193,0.156 -0.339,0.381 -0.438,0.67 -0.097,0.291 -0.146,0.672 -0.146,1.147 0,0.757 0.132,1.302 0.396,1.636 0.222,0.278 0.526,0.418 0.915,0.418 0.294,0 0.538,-0.078 0.73,-0.238 0.193,-0.157 0.339,-0.381 0.436,-0.672 0.097,-0.289 0.146,-0.67 0.146,-1.144 0,-0.397 -0.031,-0.716 -0.09,-0.95 -0.059,-0.234 -0.143,-0.433 -0.248,-0.597 z m -0.4,2.867 C 9.564,37.418 9.374,37.527 9.147,37.527 8.92,37.527 8.729,37.419 8.575,37.199 8.42,36.98 8.343,36.542 8.343,35.881 c 0,-0.659 0.085,-1.111 0.255,-1.357 0.135,-0.191 0.317,-0.289 0.544,-0.289 0.231,0 0.423,0.109 0.578,0.326 0.154,0.219 0.232,0.658 0.232,1.32 -10e-4,0.659 -0.079,1.098 -0.233,1.318 z"
             id="path24508"
             style="fill:#2eaadf;fill-opacity:1" /><path
             inkscape:connector-curvature="0"
             d="m 13.243,34.332 c -0.106,-0.164 -0.24,-0.289 -0.402,-0.376 -0.165,-0.086 -0.354,-0.13 -0.568,-0.13 -0.292,0 -0.536,0.078 -0.729,0.236 -0.194,0.156 -0.339,0.381 -0.438,0.67 -0.097,0.291 -0.146,0.672 -0.146,1.147 0,0.757 0.132,1.302 0.396,1.636 0.222,0.278 0.526,0.418 0.915,0.418 0.293,0 0.538,-0.078 0.73,-0.238 0.193,-0.157 0.337,-0.381 0.435,-0.672 0.097,-0.289 0.147,-0.67 0.147,-1.144 0,-0.397 -0.031,-0.716 -0.092,-0.95 -0.057,-0.234 -0.141,-0.433 -0.248,-0.597 z m -0.399,2.867 c -0.154,0.219 -0.346,0.328 -0.571,0.328 -0.228,0 -0.418,-0.108 -0.573,-0.328 -0.155,-0.219 -0.231,-0.657 -0.231,-1.318 0,-0.659 0.085,-1.111 0.254,-1.357 0.136,-0.191 0.318,-0.289 0.544,-0.289 0.23,0 0.423,0.109 0.578,0.326 0.155,0.219 0.233,0.658 0.233,1.32 -10e-4,0.659 -0.079,1.098 -0.234,1.318 z"
             id="path24510"
             style="fill:#2eaadf;fill-opacity:1" /><path
             inkscape:connector-curvature="0"
             d="m 15.948,37.865 0,-4.039 -0.318,0 c -0.086,0.174 -0.233,0.353 -0.44,0.537 -0.207,0.186 -0.448,0.343 -0.724,0.474 l 0,0.478 c 0.154,-0.058 0.327,-0.143 0.52,-0.256 0.193,-0.113 0.35,-0.228 0.467,-0.34 l 0,3.148 0.495,0 0,-0.002 z"
             id="path24512"
             style="fill:#2eaadf;fill-opacity:1" /><path
             inkscape:connector-curvature="0"
             d="m 18.615,40.912 c -0.207,0.185 -0.449,0.342 -0.725,0.473 l 0,0.477 c 0.154,-0.057 0.328,-0.141 0.521,-0.254 0.193,-0.112 0.348,-0.227 0.467,-0.34 l 0,3.147 0.494,0 0,-4.041 -0.319,0 c -0.086,0.174 -0.232,0.353 -0.438,0.538 z"
             id="path24514"
             style="fill:#2eaadf;fill-opacity:1" /><path
             inkscape:connector-curvature="0"
             d="M 6.993,41.076 C 6.886,40.913 6.753,40.788 6.589,40.701 6.426,40.613 6.237,40.57 6.021,40.57 c -0.292,0 -0.536,0.078 -0.729,0.235 -0.193,0.157 -0.337,0.382 -0.436,0.671 -0.097,0.291 -0.147,0.674 -0.147,1.149 0,0.756 0.133,1.3 0.398,1.636 0.221,0.276 0.525,0.416 0.914,0.416 0.294,0 0.538,-0.078 0.732,-0.236 0.191,-0.158 0.337,-0.384 0.435,-0.674 0.097,-0.289 0.146,-0.671 0.146,-1.142 0,-0.399 -0.03,-0.718 -0.09,-0.951 C 7.182,41.439 7.098,41.24 6.993,41.076 Z m -0.4,2.867 c -0.155,0.22 -0.345,0.33 -0.572,0.33 -0.227,0 -0.417,-0.11 -0.572,-0.33 -0.155,-0.219 -0.23,-0.656 -0.23,-1.316 0,-0.661 0.083,-1.113 0.253,-1.359 0.135,-0.191 0.317,-0.287 0.544,-0.287 0.231,0 0.423,0.107 0.578,0.326 0.155,0.217 0.232,0.657 0.232,1.32 -10e-4,0.658 -0.078,1.097 -0.233,1.316 z"
             id="path24516"
             style="fill:#2eaadf;fill-opacity:1" /><path
             inkscape:connector-curvature="0"
             d="M 8.938,41.107 C 8.731,41.293 8.49,41.449 8.214,41.581 l 0,0.477 c 0.153,-0.057 0.327,-0.141 0.52,-0.254 0.193,-0.112 0.349,-0.228 0.467,-0.34 l 0,3.147 0.494,0 0,-4.041 -0.319,0 c -0.085,0.175 -0.232,0.353 -0.438,0.537 z"
             id="path24518"
             style="fill:#2eaadf;fill-opacity:1" /><path
             inkscape:connector-curvature="0"
             d="m 11.647,41.107 c -0.207,0.186 -0.448,0.342 -0.724,0.474 l 0,0.477 c 0.152,-0.057 0.327,-0.141 0.52,-0.254 0.193,-0.112 0.35,-0.228 0.467,-0.34 l 0,3.147 0.494,0 0,-4.041 -0.318,0 C 12,40.745 11.853,40.923 11.647,41.107 Z"
             id="path24520"
             style="fill:#2eaadf;fill-opacity:1" /><path
             inkscape:connector-curvature="0"
             d="m 15.952,41.076 c -0.107,-0.163 -0.24,-0.288 -0.404,-0.375 -0.163,-0.088 -0.352,-0.131 -0.567,-0.131 -0.293,0 -0.537,0.078 -0.73,0.235 -0.193,0.157 -0.337,0.382 -0.436,0.671 -0.097,0.291 -0.146,0.674 -0.146,1.149 0,0.756 0.132,1.3 0.397,1.636 0.221,0.276 0.526,0.416 0.915,0.416 0.293,0 0.537,-0.078 0.73,-0.236 0.193,-0.158 0.337,-0.384 0.435,-0.674 0.097,-0.289 0.147,-0.671 0.147,-1.142 0,-0.399 -0.031,-0.718 -0.092,-0.951 -0.059,-0.235 -0.142,-0.434 -0.249,-0.598 z m -0.4,2.867 c -0.155,0.22 -0.345,0.33 -0.571,0.33 -0.228,0 -0.418,-0.11 -0.574,-0.33 -0.155,-0.219 -0.23,-0.656 -0.23,-1.316 0,-0.661 0.085,-1.113 0.253,-1.359 0.137,-0.191 0.317,-0.287 0.544,-0.287 0.231,0 0.423,0.107 0.578,0.326 0.155,0.217 0.232,0.657 0.232,1.32 10e-4,0.658 -0.076,1.097 -0.232,1.316 z"
             id="path24522"
             style="fill:#2eaadf;fill-opacity:1" /></g></g></g></g><g
     inkscape:groupmode="layer"
     id="layer6"
     inkscape:label="Monitor BDR"><path
       style="clip-rule:evenodd;fill:#333333;fill-rule:evenodd"
       d="M 21.738281,-0.6210938 C 9.716542,-0.6210937 0,9.085672 0,21.044922 L 0,627.67383 c 0,11.98092 9.716542,21.66406 21.738281,21.66406 l 956.523439,0 c 12.02174,0 21.73828,-9.68314 21.73828,-21.66406 l 0,-606.628908 c 0,-11.95925 -9.71654,-21.6660157 -21.73828,-21.6660158 l -956.523439,0 z m 21.740235,43.3320318 913.042964,0 0,563.296872 -913.042964,0 0,-563.296872 z"
       id="path4992"
       inkscape:connector-curvature="0"
       inkscape:export-xdpi="91.379494"
       inkscape:export-ydpi="91.379494" /></g></svg>