<?xml version="1.0" encoding="UTF-8" standalone="no"?>
<!-- Generator: Adobe Illustrator 15.0.0, SVG Export Plug-In . SVG Version: 6.00 Build 0)  -->

<svg
   xmlns:dc="http://purl.org/dc/elements/1.1/"
   xmlns:cc="http://creativecommons.org/ns#"
   xmlns:rdf="http://www.w3.org/1999/02/22-rdf-syntax-ns#"
   xmlns:svg="http://www.w3.org/2000/svg"
   xmlns="http://www.w3.org/2000/svg"
   xmlns:sodipodi="http://sodipodi.sourceforge.net/DTD/sodipodi-0.dtd"
   xmlns:inkscape="http://www.inkscape.org/namespaces/inkscape"
   version="1.1"
   id="Layer_1"
   x="0px"
   y="0px"
   width="611"
   height="521"
   viewBox="0 0 611 521"
   enable-background="new 0 0 500 500"
   xml:space="preserve"
   inkscape:version="0.91 r"
   sodipodi:docname="respdsnf.svg"><metadata
     id="metadata5451"><rdf:RDF><cc:Work
         rdf:about=""><dc:format>image/svg+xml</dc:format><dc:type
           rdf:resource="http://purl.org/dc/dcmitype/StillImage" /><dc:title></dc:title></cc:Work></rdf:RDF></metadata><defs
     id="defs5449" /><sodipodi:namedview
     pagecolor="#ffffff"
     bordercolor="#666666"
     borderopacity="1"
     objecttolerance="10"
     gridtolerance="10"
     guidetolerance="10"
     inkscape:pageopacity="0"
     inkscape:pageshadow="2"
     inkscape:window-width="1366"
     inkscape:window-height="715"
     id="namedview5447"
     showgrid="false"
     showguides="true"
     inkscape:guide-bbox="true"
     inkscape:zoom="0.6675088"
     inkscape:cx="250"
     inkscape:cy="250"
     inkscape:window-x="0"
     inkscape:window-y="29"
     inkscape:window-maximized="1"
     inkscape:current-layer="Layer_1"><sodipodi:guide
       position="89.886455,578.26953"
       orientation="1,0"
       id="guide6682" /><sodipodi:guide
       position="826.95539,259.17261"
       orientation="0,1"
       id="guide6686" /><sodipodi:guide
       position="146.81454,399.99473"
       orientation="1,0"
       id="guide6723" /></sodipodi:namedview><text
     transform="scale(1.0311531,0.96978809)"
     sodipodi:linespacing="125%"
     id="text4200"
     y="342.73709"
     x="10.925554"
     style="font-style:normal;font-weight:normal;font-size:21.51652718px;line-height:125%;font-family:sans-serif;letter-spacing:0px;word-spacing:0px;clip-rule:evenodd;fill:#f64747;fill-opacity:1;fill-rule:evenodd;stroke:none;stroke-width:1px;stroke-linecap:butt;stroke-linejoin:miter;stroke-opacity:1;image-rendering:optimizeQuality;shape-rendering:geometricPrecision;text-rendering:geometricPrecision"
     xml:space="preserve"><tspan
       style="font-style:normal;font-variant:normal;font-weight:normal;font-stretch:normal;font-size:227.6414032px;font-family:FontAwesome;-inkscape-font-specification:FontAwesome;fill:#f64747;fill-opacity:1"
       y="342.73709"
       x="10.925554"
       id="tspan4202"
       sodipodi:role="line"></tspan></text>
<g
     id="g7426"
     transform="matrix(3.5765275,0,0,3.9493993,146.64049,8.4806738)"><g
       id="g7428"><path
         style="fill:#b0bec5"
         inkscape:connector-curvature="0"
         d="m 56,40 -32,0 0,32 32,0 0,-32 z m -32,48 80,0 0,-8 -80,0 0,8 z m 0,16 80,0 0,-8 -80,0 0,8 z m 40,-64 0,8 40,0 0,-8 -40,0 z m 0,24 40,0 0,-8 -40,0 0,8 z"
         id="path7430" /></g></g><path
     inkscape:connector-curvature="0"
     style="fill:#546e7a"
     d="m 575.82379,8.4806738 -400.57108,0 c -15.77248,0 -28.61222,14.1783432 -28.61222,31.5951902 l 0,442.332736 c 0,17.41685 12.83974,31.59519 28.61222,31.59519 l 400.57108,0 c 15.77248,0 28.61222,-14.17834 28.61222,-31.59519 l 0,-442.332736 c 0,-17.416847 -12.83974,-31.5951902 -28.61222,-31.5951902 z M 504.29324,40.075864 c 7.9077,0 14.3061,7.065483 14.3061,15.797598 0,8.732125 -6.3984,15.797599 -14.3061,15.797599 -7.90769,0 -14.30612,-7.065474 -14.30612,-15.797599 0,-8.732115 6.39843,-15.797598 14.30612,-15.797598 z m -257.50998,0 200.28555,0 c 7.9077,0 14.3061,7.065483 14.3061,15.797598 0,8.732125 -6.3984,15.797599 -14.3061,15.797599 l -200.28555,0 c -7.9077,0 -14.3061,-7.065474 -14.3061,-15.797599 0,-8.732115 6.3984,-15.797598 14.3061,-15.797598 z m -57.22444,0 c 7.9077,0 14.30611,7.065483 14.30611,15.797598 0,8.732125 -6.39841,15.797599 -14.30611,15.797599 -7.9077,0 -14.30611,-7.065474 -14.30611,-15.797599 0,-8.732115 6.39841,-15.797598 14.30611,-15.797598 z M 575.82379,450.8134 c 0,17.41685 -12.83974,31.5952 -28.61222,31.5952 l -343.34664,0 c -15.77248,0 -28.61222,-14.17835 -28.61222,-31.5952 l 0,-315.95195 c 0,-17.41685 12.83974,-31.59519 28.61222,-31.59519 l 343.34664,0 c 15.77248,0 28.61222,14.17834 28.61222,31.59519 l 0,315.95195 z M 561.51768,71.671061 c -7.9077,0 -14.30611,-7.065474 -14.30611,-15.797599 0,-8.732115 6.39841,-15.797598 14.30611,-15.797598 7.9077,0 14.30611,7.065483 14.30611,15.797598 0,8.732125 -6.39841,15.797599 -14.30611,15.797599 z"
     id="path7432" /></svg>