<?xml version="1.0" encoding="UTF-8" standalone="no"?>
<!-- Generator: Adobe Illustrator 18.0.0, SVG Export Plug-In . SVG Version: 6.00 Build 0)  -->

<svg
   xmlns:dc="http://purl.org/dc/elements/1.1/"
   xmlns:cc="http://creativecommons.org/ns#"
   xmlns:rdf="http://www.w3.org/1999/02/22-rdf-syntax-ns#"
   xmlns:svg="http://www.w3.org/2000/svg"
   xmlns="http://www.w3.org/2000/svg"
   xmlns:sodipodi="http://sodipodi.sourceforge.net/DTD/sodipodi-0.dtd"
   xmlns:inkscape="http://www.inkscape.org/namespaces/inkscape"
   version="1.1"
   id="Ebene_1"
   x="0px"
   y="0px"
   width="611"
   height="521"
   viewBox="0 0 611 521"
   enable-background="new 0 0 100 100"
   xml:space="preserve"
   inkscape:version="0.91 r"
   sodipodi:docname="urideaf.svg"><metadata
     id="metadata4303"><rdf:RDF><cc:Work
         rdf:about=""><dc:format>image/svg+xml</dc:format><dc:type
           rdf:resource="http://purl.org/dc/dcmitype/StillImage" /><dc:title></dc:title></cc:Work></rdf:RDF></metadata><defs
     id="defs4301" /><sodipodi:namedview
     pagecolor="#ffffff"
     bordercolor="#666666"
     borderopacity="1"
     objecttolerance="10"
     gridtolerance="10"
     guidetolerance="10"
     inkscape:pageopacity="0"
     inkscape:pageshadow="2"
     inkscape:window-width="1366"
     inkscape:window-height="715"
     id="namedview4299"
     showgrid="false"
     showborder="true"
     inkscape:zoom="0.56875"
     inkscape:cx="430.40532"
     inkscape:cy="190.65934"
     inkscape:window-x="0"
     inkscape:window-y="29"
     inkscape:window-maximized="1"
     inkscape:current-layer="g5530"
     showguides="true"
     inkscape:guide-bbox="true"><sodipodi:guide
       position="706.81319,212.74725"
       orientation="1,0"
       id="guide4302" /><sodipodi:guide
       position="1148.1319,258.46154"
       orientation="0,1"
       id="guide4918" /></sodipodi:namedview><g
     id="g5530"
     transform="translate(200,0)"><g
       id="g4222"
       transform="translate(-388.32967,-2)"><g
         id="g4269"
         transform="matrix(5.5555556,0,0,5.5555556,144.72222,-15.77778)"><path
           d="m 66.4,30 c -4.1,-4.4 -10,-6.8 -16.5,-6.8 -6.5,0 -12.3,2.4 -16.5,6.8 -4,4.2 -6.2,10.1 -6.2,16.5 0,7.9 3.5,12.9 6.6,17.4 2.5,3.5 4.6,6.6 4.6,10.3 0,2 1.5,3.8 4.5,5 2.1,0.9 4.8,1.5 7,1.5 l 0,0 0,0 c 2.2,0 4.9,-0.6 7,-1.5 2.9,-1.2 4.5,-3 4.5,-5 0,-3.8 2.1,-6.8 4.6,-10.3 3.1,-4.5 6.6,-9.5 6.6,-17.4 0,-6.4 -2.2,-12.2 -6.2,-16.5 z m -8.7,16.9 c -0.5,-0.4 -1.2,-0.3 -1.5,0.2 -5.7,7.1 -7.3,15.6 -7.8,21.5 0,0.2 0,0.4 0,0.6 -0.4,-1 -0.8,-2.2 -1.1,-3.5 -1.1,-4 -1.8,-9.9 1,-15.2 2.3,-4.3 5.6,-7.6 9.7,-9.7 2,-1 3.7,-1.4 4.7,-1.7 0.6,2.8 1.8,11.1 -2.2,18.8 -2.6,4.9 -7.3,10.5 -9.9,13.3 0,-0.8 0.1,-1.7 0.1,-2.6 0.4,-5.6 2,-13.6 7.3,-20.3 0.2,-0.3 0.1,-1 -0.3,-1.4 z m -13.3,8.3 c -1.5,-3 -2.7,-3.9 -2.9,-4.1 -0.5,-0.3 -1.2,-0.2 -1.5,0.3 -0.3,0.5 -0.2,1.2 0.3,1.5 0,0 1.9,1.5 3.8,7 0,0.1 0.1,0.2 0.1,0.2 0.1,2 0.4,4.1 1,6.2 0.1,0.2 0.1,0.5 0.2,0.7 -4.3,-4.7 -9.6,-12.1 -8.9,-19.5 5.3,-0.9 8.4,1.6 9.5,2.7 -0.8,1.7 -1.3,3.3 -1.6,5 z m 19.8,7.5 c -2.6,3.7 -5,7.1 -5,11.6 0,1.5 -2.2,2.6 -3.1,3 -1.6,0.7 -3.5,1.1 -5.2,1.3 -0.1,-0.8 -0.3,-2.2 -0.3,-3.9 1.5,-1.6 8.4,-9 11.8,-15.5 C 67.7,49.1 64.7,38.3 64.6,37.8 64.5,37.3 64,37 63.4,37 c -0.1,0 -2.8,0.3 -6.3,2 -2.9,1.4 -7,4.2 -10.1,9.4 -1.8,-1.6 -5.7,-4 -11.8,-2.7 -0.4,0.1 -0.8,0.5 -0.8,0.9 -0.7,4.9 0.8,10.3 4.6,16 2.7,4.1 5.9,7.4 8.2,9.6 0.5,1.1 0.9,1.8 1.1,2.2 0.1,1.8 0.2,3.2 0.3,4.1 -1.6,-0.2 -3.4,-0.6 -4.9,-1.2 -0.9,-0.4 -3.1,-1.5 -3.1,-3 0,-4.5 -2.4,-7.9 -5,-11.6 -3.1,-4.4 -6.3,-9 -6.3,-16.1 0,-5.8 2,-11.1 5.6,-15 3.8,-4 8.9,-6.1 14.9,-6.1 6,0 11.1,2.1 14.9,6.1 3.6,3.8 5.6,9.2 5.6,15 0.1,7.1 -3.1,11.7 -6.1,16.1 z"
           id="path4271"
           inkscape:connector-curvature="0" /><path
           d="m 58.9,79.6 c -2.5,1.8 -5.6,2.8 -9,2.8 -3.4,0 -6.5,-1 -9.1,-2.8 -0.5,-0.4 -1.2,-0.2 -1.5,0.2 -0.4,0.5 -0.2,1.2 0.2,1.5 2.9,2.1 6.5,3.3 10.3,3.3 3.8,0 7.4,-1.1 10.3,-3.2 0.5,-0.4 0.6,-1 0.2,-1.5 -0.2,-0.5 -0.9,-0.6 -1.4,-0.3 z"
           id="path4273"
           inkscape:connector-curvature="0" /><path
           d="m 58.9,83.5 c -2.3,1.7 -5.3,2.5 -9,2.5 -3.7,0 -6.7,-0.8 -9.1,-2.5 -0.5,-0.4 -1.2,-0.2 -1.5,0.2 -0.4,0.5 -0.2,1.2 0.2,1.5 2.7,2 6.1,3 10.3,3 4.2,0 7.5,-1 10.3,-2.9 0.5,-0.4 0.6,-1 0.2,-1.5 -0.2,-0.6 -0.9,-0.7 -1.4,-0.3 z"
           id="path4275"
           inkscape:connector-curvature="0" /><path
           d="m 58.9,87.4 c -2.7,1.9 -6.1,2.2 -9,2.2 -2.9,0 -6.3,-0.3 -9.1,-2.3 -0.5,-0.4 -1.2,-0.2 -1.5,0.2 -0.4,0.5 -0.2,1.2 0.2,1.5 1.9,1.4 4.1,2.1 6.2,2.4 0.3,2 2,3.6 4.1,3.6 2.1,0 3.8,-1.6 4.1,-3.6 2.1,-0.3 4.2,-1 6.1,-2.4 0.5,-0.4 0.6,-1 0.2,-1.5 -0.1,-0.4 -0.8,-0.5 -1.3,-0.1 z m -9,5.5 c -0.8,0 -1.5,-0.5 -1.8,-1.2 0.6,0 1.2,0 1.8,0 0.6,0 1.2,0 1.8,0 -0.2,0.7 -0.9,1.2 -1.8,1.2 z"
           id="path4277"
           inkscape:connector-curvature="0" /><path
           d="m 46.2,27.8 c -4.4,0.8 -7.8,2.9 -10.9,6.7 -0.4,0.5 -0.3,1.2 0.2,1.5 0.2,0.2 0.4,0.2 0.7,0.2 0.3,0 0.6,-0.1 0.9,-0.4 2.7,-3.4 5.7,-5.3 9.5,-5.9 0.6,-0.1 1,-0.7 0.9,-1.3 -0.1,-0.5 -0.7,-0.9 -1.3,-0.8 z"
           id="path4279"
           inkscape:connector-curvature="0"
           style="fill:#000000" /><path
           d="m 48.4,17.5 c 0,0.4 0.2,0.8 0.4,1 0.3,0.3 0.6,0.4 1,0.4 0.4,0 0.8,-0.2 1,-0.4 0.3,-0.3 0.4,-0.6 0.4,-1 0,-0.4 -0.2,-0.8 -0.4,-1 -0.2,-0.2 -0.4,-0.3 -0.6,-0.4 0.6,-0.2 1,-0.7 1,-1.4 0,-0.6 -0.4,-1.2 -1,-1.4 0.6,-0.2 1,-0.7 1,-1.4 0,-0.6 -0.4,-1.2 -1,-1.4 0.6,-0.2 1,-0.7 1,-1.4 0,-0.6 -0.4,-1.2 -1,-1.4 C 50.4,7.6 50.6,7.5 50.8,7.3 51.1,7 51.2,6.7 51.2,6.3 51.2,5.9 51,5.5 50.8,5.3 50.6,5.2 50.2,5 49.9,5 c -0.4,0 -0.8,0.2 -1,0.4 -0.3,0.3 -0.4,0.6 -0.4,1 0,0.4 0.2,0.8 0.4,1 0.2,0.2 0.4,0.3 0.6,0.4 -0.6,0.2 -1,0.7 -1,1.4 0,0.6 0.4,1.2 1,1.4 -0.6,0.2 -1,0.7 -1,1.4 0,0.6 0.4,1.2 1,1.4 -0.6,0.2 -1,0.7 -1,1.4 0,0.6 0.4,1.2 1,1.4 -0.2,0.1 -0.4,0.2 -0.6,0.4 -0.3,0.1 -0.5,0.5 -0.5,0.9 z"
           id="path4281"
           inkscape:connector-curvature="0"
           style="fill:#adf200;fill-opacity:1" /><path
           d="m 27.7,14.6 c 0.1,0 0.3,0 0.4,-0.1 -0.4,0.5 -0.4,1.2 -0.1,1.7 0.4,0.5 1,0.8 1.6,0.6 -0.4,0.5 -0.4,1.2 -0.1,1.7 0.4,0.5 1,0.8 1.6,0.6 -0.4,0.5 -0.4,1.2 -0.1,1.7 0.3,0.4 0.7,0.6 1.2,0.6 0.1,0 0.3,0 0.4,-0.1 -0.2,0.3 -0.3,0.6 -0.3,0.9 0,0.4 0.2,0.8 0.4,1 0.3,0.3 0.6,0.4 1,0.4 0.4,0 0.8,-0.2 1,-0.4 0.3,-0.3 0.4,-0.6 0.4,-1 0,-0.4 -0.2,-0.8 -0.4,-1 -0.3,-0.3 -0.6,-0.4 -1,-0.4 -0.1,0 -0.3,0 -0.4,0.1 0.4,-0.5 0.4,-1.2 0.1,-1.7 -0.4,-0.5 -1,-0.8 -1.6,-0.6 0.4,-0.5 0.4,-1.2 0.1,-1.7 -0.4,-0.5 -1,-0.8 -1.6,-0.6 0.4,-0.5 0.4,-1.2 0.1,-1.7 -0.4,-0.5 -1,-0.8 -1.6,-0.6 0.2,-0.3 0.3,-0.6 0.3,-0.9 0,-0.4 -0.2,-0.8 -0.4,-1 -0.3,-0.3 -0.6,-0.4 -1,-0.4 -0.4,0 -0.8,0.2 -1,0.4 -0.3,0.3 -0.4,0.6 -0.4,1 0,0.4 0.2,0.8 0.4,1 0.3,0.4 0.6,0.5 1,0.5 z"
           id="path4283"
           inkscape:connector-curvature="0"
           style="fill:#adf200;fill-opacity:1" /><path
           d="m 13.1,32.6 c 0.4,0 0.8,-0.2 1,-0.4 0,0 0,-0.1 0.1,-0.1 0,0.6 0.3,1.2 0.9,1.5 0.6,0.2 1.3,0.1 1.7,-0.4 0,0.6 0.3,1.2 0.9,1.4 0.6,0.2 1.3,0.1 1.7,-0.4 0,0.6 0.3,1.2 0.9,1.4 0.2,0.1 0.4,0.1 0.6,0.1 0.4,0 0.8,-0.2 1.1,-0.5 l 0,0.1 c 0,0.4 0.2,0.8 0.4,1 0.3,0.3 0.6,0.4 1,0.4 0.4,0 0.8,-0.2 1,-0.4 0.3,-0.3 0.4,-0.6 0.4,-1 0,-0.4 -0.2,-0.8 -0.4,-1 -0.3,-0.3 -0.6,-0.4 -1,-0.4 -0.4,0 -0.8,0.2 -1,0.4 0,0 0,0.1 -0.1,0.1 0,-0.6 -0.3,-1.2 -0.9,-1.5 -0.6,-0.2 -1.3,-0.1 -1.7,0.4 0,-0.6 -0.3,-1.2 -0.9,-1.4 -0.6,-0.2 -1.3,-0.1 -1.7,0.4 0,-0.6 -0.3,-1.2 -0.9,-1.4 -0.6,-0.2 -1.3,-0.1 -1.7,0.4 l 0,-0.1 c 0,-0.4 -0.2,-0.8 -0.4,-1 -0.3,-0.3 -0.6,-0.4 -1,-0.4 -0.4,0 -0.8,0.2 -1,0.4 -0.3,0.3 -0.4,0.6 -0.4,1 0,0.4 0.2,0.8 0.4,1 0.2,0.2 0.6,0.4 1,0.4 z"
           id="path4285"
           inkscape:connector-curvature="0"
           style="fill:#adf200;fill-opacity:1" /><path
           d="m 20.6,53.1 c 0.3,0.3 0.6,0.4 1,0.4 0.4,0 0.8,-0.2 1,-0.4 0.3,-0.3 0.4,-0.6 0.4,-1 0,-0.4 -0.2,-0.8 -0.4,-1 -0.3,-0.3 -0.6,-0.4 -1,-0.4 -0.4,0 -0.8,0.2 -1,0.4 -0.2,0.2 -0.4,0.5 -0.4,0.9 -0.3,-0.5 -0.9,-0.8 -1.5,-0.7 -0.6,0.1 -1.1,0.6 -1.2,1.2 -0.3,-0.5 -0.9,-0.8 -1.5,-0.7 -0.6,0.1 -1.1,0.6 -1.2,1.2 -0.3,-0.5 -0.9,-0.8 -1.5,-0.7 -0.6,0.1 -1.1,0.6 -1.2,1.2 -0.1,-0.1 -0.1,-0.2 -0.2,-0.3 -0.3,-0.3 -0.6,-0.4 -1,-0.4 -0.4,0 -0.8,0.2 -1,0.4 -0.3,0.3 -0.4,0.6 -0.4,1 0,0.4 0.2,0.8 0.4,1 0.3,0.3 0.6,0.4 1,0.4 0.4,0 0.8,-0.2 1,-0.4 0.2,-0.2 0.4,-0.5 0.4,-0.9 0.3,0.5 0.7,0.7 1.3,0.7 0.1,0 0.2,0 0.3,0 0.6,-0.1 1.1,-0.6 1.2,-1.2 0.3,0.5 0.9,0.8 1.5,0.7 0.6,-0.1 1.1,-0.6 1.2,-1.2 0.3,0.5 0.9,0.8 1.5,0.7 0.6,-0.1 1.1,-0.6 1.2,-1.3 -0.1,0.2 0,0.3 0.1,0.4 z"
           id="path4287"
           inkscape:connector-curvature="0"
           style="fill:#adf200;fill-opacity:1" /><path
           d="m 29.5,65.4 c -0.4,0 -0.8,0.2 -1,0.4 -0.3,0.3 -0.4,0.6 -0.4,1 0,0.2 0.1,0.5 0.2,0.7 -0.5,-0.3 -1.2,-0.2 -1.7,0.3 -0.5,0.5 -0.5,1.1 -0.3,1.7 -0.5,-0.3 -1.2,-0.2 -1.7,0.3 -0.5,0.5 -0.5,1.1 -0.3,1.7 -0.5,-0.3 -1.2,-0.2 -1.7,0.3 -0.5,0.5 -0.5,1.1 -0.3,1.7 -0.2,-0.1 -0.4,-0.2 -0.7,-0.2 -0.4,0 -0.8,0.2 -1,0.4 -0.2,0.2 -0.4,0.6 -0.4,1 0,0.4 0.2,0.8 0.4,1 0.3,0.3 0.6,0.4 1,0.4 0.4,0 0.8,-0.2 1,-0.4 0.3,-0.3 0.4,-0.6 0.4,-1 0,-0.2 -0.1,-0.5 -0.2,-0.7 0.2,0.1 0.4,0.2 0.7,0.2 0.4,0 0.7,-0.1 1,-0.4 0.5,-0.5 0.5,-1.1 0.3,-1.7 0.5,0.3 1.2,0.2 1.7,-0.3 0.5,-0.5 0.5,-1.1 0.3,-1.7 0.5,0.3 1.2,0.2 1.7,-0.3 0.5,-0.5 0.5,-1.1 0.3,-1.7 0.2,0.1 0.4,0.2 0.7,0.2 0.4,0 0.8,-0.2 1,-0.4 0.3,-0.3 0.4,-0.6 0.4,-1 0,-0.4 -0.2,-0.8 -0.4,-1 -0.2,-0.4 -0.6,-0.5 -1,-0.5 z"
           id="path4289"
           inkscape:connector-curvature="0"
           style="fill:#adf200;fill-opacity:1" /><path
           d="m 66,23.8 c 0.4,0 0.8,-0.2 1,-0.4 0.3,-0.3 0.4,-0.6 0.4,-1 0,-0.3 -0.1,-0.6 -0.3,-0.9 0.1,0 0.3,0.1 0.4,0.1 0.5,0 0.9,-0.2 1.2,-0.6 0.4,-0.5 0.3,-1.2 -0.1,-1.7 0.6,0.2 1.2,-0.1 1.6,-0.6 0.4,-0.5 0.3,-1.2 -0.1,-1.7 0.6,0.2 1.2,-0.1 1.6,-0.6 0.4,-0.5 0.3,-1.2 -0.1,-1.7 0.1,0 0.3,0.1 0.4,0.1 0.4,0 0.8,-0.2 1,-0.4 0.3,-0.3 0.4,-0.6 0.4,-1 0,-0.4 -0.2,-0.8 -0.4,-1 -0.3,-0.3 -0.6,-0.4 -1,-0.4 -0.4,0 -0.8,0.2 -1,0.4 -0.3,0.3 -0.4,0.6 -0.4,1 0,0.3 0.1,0.6 0.3,0.9 -0.6,-0.2 -1.2,0.1 -1.6,0.6 -0.4,0.5 -0.3,1.2 0.1,1.7 -0.6,-0.2 -1.2,0.1 -1.6,0.6 -0.4,0.5 -0.3,1.2 0.1,1.7 -0.6,-0.2 -1.2,0.1 -1.6,0.6 -0.4,0.5 -0.3,1.2 0.1,1.7 -0.1,0 -0.3,-0.1 -0.4,-0.1 -0.4,0 -0.8,0.2 -1,0.4 -0.3,0.3 -0.4,0.6 -0.4,1 0,0.4 0.2,0.8 0.4,1 0.2,0.2 0.6,0.3 1,0.3 z"
           id="path4291"
           inkscape:connector-curvature="0"
           style="fill:#adf200;fill-opacity:1" /><path
           d="m 76.6,36.8 c 0.4,0 0.8,-0.2 1,-0.4 0.3,-0.3 0.4,-0.6 0.4,-1 l 0,-0.1 c 0.3,0.3 0.7,0.5 1.1,0.5 0.2,0 0.4,0 0.6,-0.1 0.6,-0.2 0.9,-0.8 0.9,-1.4 0.4,0.5 1.1,0.6 1.7,0.4 0.6,-0.2 0.9,-0.8 0.9,-1.4 0.4,0.5 1.1,0.6 1.7,0.4 0.6,-0.2 0.9,-0.8 0.9,-1.5 0,0 0,0.1 0.1,0.1 0.3,0.3 0.6,0.4 1,0.4 0.4,0 0.8,-0.2 1,-0.4 0.3,-0.3 0.4,-0.6 0.4,-1 0,-0.4 -0.2,-0.8 -0.4,-1 -0.3,-0.3 -0.6,-0.4 -1,-0.4 -0.4,0 -0.8,0.2 -1,0.4 -0.3,0.3 -0.4,0.6 -0.4,1 l 0,0.1 c -0.4,-0.5 -1.1,-0.6 -1.7,-0.4 -0.6,0.2 -0.9,0.8 -0.9,1.4 -0.4,-0.5 -1.1,-0.6 -1.7,-0.4 -0.6,0.2 -0.9,0.8 -0.9,1.4 -0.4,-0.5 -1.1,-0.6 -1.7,-0.4 -0.6,0.2 -0.9,0.8 -0.9,1.5 0,0 0,-0.1 -0.1,-0.1 -0.3,-0.3 -0.6,-0.4 -1,-0.4 -0.4,0 -0.8,0.2 -1,0.4 -0.3,0.3 -0.4,0.6 -0.4,1 0,0.4 0.2,0.8 0.4,1 0.2,0.2 0.6,0.4 1,0.4 z"
           id="path4293"
           inkscape:connector-curvature="0"
           style="fill:#adf200;fill-opacity:1" /><path
           d="m 90,53.2 c -0.3,-0.3 -0.6,-0.4 -1,-0.4 -0.4,0 -0.8,0.2 -1,0.4 -0.1,0.1 -0.2,0.2 -0.2,0.3 -0.1,-0.6 -0.5,-1.1 -1.2,-1.3 -0.6,-0.1 -1.2,0.2 -1.5,0.7 -0.1,-0.6 -0.5,-1.1 -1.2,-1.2 -0.6,-0.1 -1.2,0.2 -1.5,0.7 -0.1,-0.6 -0.5,-1.1 -1.2,-1.2 -0.6,-0.1 -1.2,0.2 -1.5,0.7 0,-0.3 -0.2,-0.6 -0.4,-0.9 -0.3,-0.3 -0.6,-0.4 -1,-0.4 -0.4,0 -0.8,0.2 -1,0.4 -0.3,0.3 -0.4,0.6 -0.4,1 0,0.4 0.2,0.8 0.4,1 0.3,0.3 0.6,0.4 1,0.4 0.4,0 0.8,-0.2 1,-0.4 0.1,-0.1 0.2,-0.2 0.2,-0.3 0.1,0.6 0.5,1.1 1.2,1.3 0.6,0.1 1.2,-0.2 1.5,-0.7 0.1,0.6 0.5,1.1 1.2,1.2 0.6,0.1 1.2,-0.2 1.5,-0.7 0.1,0.6 0.5,1.1 1.2,1.2 0.1,0 0.2,0 0.3,0 0.5,0 1,-0.3 1.3,-0.7 0,0.3 0.2,0.6 0.4,0.9 0.3,0.3 0.6,0.4 1,0.4 0.4,0 0.8,-0.2 1,-0.4 0.3,-0.3 0.4,-0.6 0.4,-1 -0.1,-0.3 -0.2,-0.7 -0.5,-1 z"
           id="path4295"
           inkscape:connector-curvature="0"
           style="fill:#adf200;fill-opacity:1" /><path
           d="m 78.1,73.2 c -0.2,0 -0.5,0.1 -0.7,0.2 0.3,-0.5 0.2,-1.2 -0.3,-1.7 -0.5,-0.5 -1.1,-0.5 -1.7,-0.3 0.3,-0.5 0.2,-1.2 -0.3,-1.7 -0.5,-0.5 -1.1,-0.5 -1.7,-0.3 0.3,-0.5 0.2,-1.2 -0.3,-1.7 -0.5,-0.5 -1.1,-0.5 -1.7,-0.3 0.1,-0.2 0.2,-0.4 0.2,-0.7 0,-0.4 -0.2,-0.8 -0.4,-1 -0.3,-0.3 -0.6,-0.4 -1,-0.4 -0.4,0 -0.8,0.2 -1,0.4 -0.3,0.3 -0.4,0.6 -0.4,1 0,0.4 0.2,0.8 0.4,1 0.3,0.3 0.6,0.4 1,0.4 0.2,0 0.5,-0.1 0.7,-0.2 -0.3,0.5 -0.2,1.2 0.3,1.7 0.5,0.5 1.1,0.5 1.7,0.3 -0.3,0.5 -0.2,1.2 0.3,1.7 0.5,0.5 1.1,0.5 1.7,0.3 -0.3,0.5 -0.2,1.2 0.3,1.7 0.3,0.3 0.7,0.4 1,0.4 0.2,0 0.5,-0.1 0.7,-0.2 -0.1,0.2 -0.2,0.4 -0.2,0.7 0,0.4 0.2,0.8 0.4,1 0.3,0.3 0.6,0.4 1,0.4 0.4,0 0.8,-0.2 1,-0.4 0.3,-0.3 0.4,-0.6 0.4,-1 0,-0.4 -0.2,-0.8 -0.4,-1 -0.3,-0.2 -0.7,-0.3 -1,-0.3 z"
           id="path4297"
           inkscape:connector-curvature="0"
           style="fill:#adf200;fill-opacity:1" /></g><text
         xml:space="preserve"
         style="font-style:normal;font-weight:normal;font-size:40px;line-height:125%;font-family:sans-serif;letter-spacing:0px;word-spacing:0px;fill:#f64747;fill-opacity:1;stroke:none;stroke-width:1px;stroke-linecap:butt;stroke-linejoin:miter;stroke-opacity:1"
         x="705.05493"
         y="343.17581"
         id="text4304"
         sodipodi:linespacing="125%"><tspan
           sodipodi:role="line"
           id="tspan4306"
           x="705.05493"
           y="343.17581"
           style="font-style:normal;font-variant:normal;font-weight:normal;font-stretch:normal;font-size:250px;font-family:FontAwesome;-inkscape-font-specification:FontAwesome;fill:#f64747;fill-opacity:1"></tspan></text>
</g></g></svg>