<?xml version="1.0" encoding="UTF-8" standalone="no"?>
<!-- Generator: Adobe Illustrator 18.1.1, SVG Export Plug-In . SVG Version: 6.00 Build 0)  -->

<svg
   xmlns:dc="http://purl.org/dc/elements/1.1/"
   xmlns:cc="http://creativecommons.org/ns#"
   xmlns:rdf="http://www.w3.org/1999/02/22-rdf-syntax-ns#"
   xmlns:svg="http://www.w3.org/2000/svg"
   xmlns="http://www.w3.org/2000/svg"
   xmlns:sodipodi="http://sodipodi.sourceforge.net/DTD/sodipodi-0.dtd"
   xmlns:inkscape="http://www.inkscape.org/namespaces/inkscape"
   version="1.1"
   id="Capa_1"
   x="0px"
   y="0px"
   viewBox="0 0 500.00001 500.00001"
   xml:space="preserve"
   inkscape:version="0.91 r"
   sodipodi:docname="wordpress.svg"
   width="500"
   height="500"><metadata
     id="metadata7684"><rdf:RDF><cc:Work
         rdf:about=""><dc:format>image/svg+xml</dc:format><dc:type
           rdf:resource="http://purl.org/dc/dcmitype/StillImage" /><dc:title></dc:title></cc:Work></rdf:RDF></metadata><defs
     id="defs7682" /><sodipodi:namedview
     pagecolor="#ffffff"
     bordercolor="#666666"
     borderopacity="1"
     objecttolerance="10"
     gridtolerance="10"
     guidetolerance="10"
     inkscape:pageopacity="0"
     inkscape:pageshadow="2"
     inkscape:window-width="1366"
     inkscape:window-height="715"
     id="namedview7680"
     showgrid="false"
     inkscape:zoom="0.63881528"
     inkscape:cx="173.15132"
     inkscape:cy="243.25287"
     inkscape:window-x="0"
     inkscape:window-y="29"
     inkscape:window-maximized="1"
     inkscape:current-layer="Capa_1" /><g
     id="g7646"
     transform="matrix(21.588252,0,0,21.588252,9.9213476,9.488628)"><path
       style="fill:#010002"
       d="M 11.21,0 C 5.05,-0.039 -0.031,5.008 0.004,11.135 c 0,6.109 4.989,11.119 11.079,11.123 6.146,0.004 11.168,-4.992 11.171,-11.114 C 22.257,5.041 17.266,0.039 11.21,0 Z M 6.693,20.076 C 5.996,19.783 5.378,19.357 4.801,18.879 2.577,17.025 1.346,14.649 1.138,11.761 1.029,10.244 1.274,8.773 1.854,7.364 1.884,7.292 1.887,7.165 1.99,7.171 c 0.077,0.007 0.083,0.123 0.107,0.193 1.505,4.119 3.009,8.237 4.511,12.358 0.04,0.106 0.07,0.223 0.104,0.334 l 0.001,0.019 -0.02,0.001 z m 7.5,0.574 c -1.864,0.588 -3.74,0.633 -5.635,0.148 C 8.304,20.736 8.33,20.613 8.394,20.43 c 0.683,-1.973 1.359,-3.939 2.038,-5.912 0.247,-0.717 0.491,-1.434 0.739,-2.146 0.03,-0.086 0.04,-0.186 0.155,-0.283 0.106,0.289 0.207,0.549 0.302,0.812 0.905,2.479 1.808,4.957 2.717,7.435 0.068,0.18 0.036,0.256 -0.152,0.314 z m 1.939,-3.588 C 16.026,16.99 16.018,16.896 15.992,16.818 14.865,13.474 13.74,10.13 12.615,6.786 12.502,6.45 12.503,6.452 12.865,6.417 13.121,6.395 13.378,6.372 13.633,6.335 13.893,6.296 14.033,6.118 14.01,5.886 13.989,5.659 13.833,5.524 13.571,5.533 12.948,5.558 12.325,5.606 11.7,5.63 10.605,5.668 9.514,5.601 8.423,5.535 8.368,5.531 8.313,5.527 8.259,5.53 8.022,5.543 7.875,5.676 7.852,5.901 7.83,6.112 7.965,6.295 8.195,6.33 c 0.284,0.041 0.572,0.071 0.86,0.092 0.143,0.011 0.23,0.054 0.281,0.192 0.479,1.321 0.96,2.642 1.444,3.962 0.041,0.111 0.021,0.213 -0.016,0.318 C 10.089,12.915 9.415,14.937 8.741,16.96 8.72,17.023 8.708,17.098 8.639,17.141 8.548,17.096 8.546,17 8.52,16.924 7.382,13.543 6.246,10.16 5.11,6.778 4.999,6.447 5.001,6.447 5.344,6.416 5.585,6.395 5.827,6.375 6.067,6.342 6.364,6.303 6.527,6.129 6.506,5.898 6.484,5.649 6.313,5.521 6.002,5.531 5.198,5.56 4.399,5.647 3.593,5.636 3.405,5.633 3.218,5.636 3.031,5.631 2.965,5.629 2.876,5.66 2.843,5.578 2.819,5.515 2.878,5.463 2.913,5.412 3.325,4.82 3.79,4.274 4.322,3.787 5.914,2.328 7.779,1.436 9.925,1.195 c 2.911,-0.324 5.501,0.467 7.744,2.363 0.045,0.038 0.108,0.066 0.108,0.141 -0.03,0.051 -0.082,0.043 -0.127,0.049 -1.08,0.144 -1.752,1.078 -1.545,2.153 0.097,0.509 0.336,0.955 0.6,1.392 0.229,0.381 0.47,0.756 0.664,1.156 0.539,1.116 0.656,2.277 0.314,3.467 -0.479,1.672 -0.99,3.338 -1.488,5.006 -0.011,0.043 -0.037,0.082 -0.063,0.14 z m 0.084,2.622 c -0.015,-0.125 0.046,-0.229 0.083,-0.336 1.047,-3.018 2.098,-6.031 3.143,-9.049 0.416,-1.202 0.625,-2.434 0.486,-3.709 -0.004,-0.036 -0.014,-0.076 0.053,-0.131 1.271,2.527 1.5,5.127 0.642,7.812 -0.715,2.213 -3.064,5.086 -4.407,5.413 z"
       id="path7648"
       inkscape:connector-curvature="0" /></g><g
     id="g7650"
     transform="translate(0,477.742)" /><g
     id="g7652"
     transform="translate(0,477.742)" /><g
     id="g7654"
     transform="translate(0,477.742)" /><g
     id="g7656"
     transform="translate(0,477.742)" /><g
     id="g7658"
     transform="translate(0,477.742)" /><g
     id="g7660"
     transform="translate(0,477.742)" /><g
     id="g7662"
     transform="translate(0,477.742)" /><g
     id="g7664"
     transform="translate(0,477.742)" /><g
     id="g7666"
     transform="translate(0,477.742)" /><g
     id="g7668"
     transform="translate(0,477.742)" /><g
     id="g7670"
     transform="translate(0,477.742)" /><g
     id="g7672"
     transform="translate(0,477.742)" /><g
     id="g7674"
     transform="translate(0,477.742)" /><g
     id="g7676"
     transform="translate(0,477.742)" /><g
     id="g7678"
     transform="translate(0,477.742)" /></svg>